<svg width="47" height="48" viewBox="0 0 47 48" fill="none" xmlns="http://www.w3.org/2000/svg">
<path d="M40.042 40.9268H33.0821V30.0209C33.0821 27.4202 33.0293 24.0734 29.4553 24.0734C25.8265 24.0734 25.2723 26.9032 25.2723 29.829V40.9268H18.3124V18.5H24.9981V21.557H25.0882C26.0223 19.7945 28.294 17.934 31.6878 17.934C38.7398 17.934 40.044 22.5753 40.044 28.6168L40.042 40.9268ZM10.4516 15.4313C8.21129 15.4313 6.41158 13.6179 6.41158 11.3873C6.41158 9.15875 8.21325 7.34729 10.4516 7.34729C12.6841 7.34729 14.4936 9.15875 14.4936 11.3873C14.4936 13.6179 12.6822 15.4313 10.4516 15.4313ZM13.9414 40.9268H6.96188V18.5H13.9414V40.9268ZM43.524 0.875H3.46821C1.551 0.875 0 2.39075 0 4.26096V44.489C0 46.3612 1.551 47.875 3.46821 47.875H43.5181C45.4333 47.875 47 46.3612 47 44.489V4.26096C47 2.39075 45.4333 0.875 43.5181 0.875H43.524Z" fill="white"/>
</svg>
