<svg width="51" height="51" viewBox="0 0 51 51" fill="none" xmlns="http://www.w3.org/2000/svg">
<path d="M34.6143 6.79547C37.0295 6.80268 39.3439 7.76535 41.0517 9.47323C42.7596 11.1811 43.7223 13.4954 43.7295 15.9107V34.1392C43.7223 36.5545 42.7596 38.8688 41.0517 40.5767C39.3439 42.2846 37.0295 43.2472 34.6143 43.2545H16.3857C13.9705 43.2472 11.6561 42.2846 9.94827 40.5767C8.24039 38.8688 7.27772 36.5545 7.27051 34.1392V15.9107C7.27772 13.4954 8.24039 11.1811 9.94827 9.47323C11.6561 7.76535 13.9705 6.80268 16.3857 6.79547H34.6143ZM34.6143 3.14996H16.3857C9.36719 3.14996 3.625 8.89215 3.625 15.9107V34.1392C3.625 41.1578 9.36719 46.9 16.3857 46.9H34.6143C41.6328 46.9 47.375 41.1578 47.375 34.1392V15.9107C47.375 8.89215 41.6328 3.14996 34.6143 3.14996Z" fill="white"/>
<path d="M37.3486 15.9107C36.8078 15.9107 36.2792 15.7503 35.8295 15.4499C35.3798 15.1494 35.0294 14.7224 34.8224 14.2227C34.6154 13.7231 34.5613 13.1733 34.6668 12.6429C34.7723 12.1125 35.0327 11.6252 35.4151 11.2428C35.7976 10.8604 36.2848 10.6 36.8152 10.4945C37.3456 10.389 37.8954 10.4431 38.395 10.6501C38.8947 10.8571 39.3217 11.2075 39.6222 11.6572C39.9226 12.1069 40.083 12.6355 40.083 13.1763C40.0838 13.5356 40.0136 13.8915 39.8764 14.2236C39.7393 14.5557 39.5379 14.8575 39.2839 15.1115C39.0298 15.3656 38.728 15.567 38.3959 15.7041C38.0639 15.8413 37.7079 15.9115 37.3486 15.9107ZM25.5 17.733C26.9422 17.733 28.3521 18.1606 29.5512 18.9619C30.7504 19.7631 31.685 20.902 32.2369 22.2344C32.7888 23.5669 32.9332 25.0331 32.6519 26.4476C32.3705 27.8621 31.676 29.1614 30.6562 30.1812C29.6364 31.201 28.3371 31.8955 26.9226 32.1768C25.5081 32.4582 24.0419 32.3138 22.7095 31.7619C21.377 31.21 20.2382 30.2753 19.4369 29.0762C18.6357 27.877 18.208 26.4672 18.208 25.025C18.2101 23.0916 18.979 21.2381 20.3461 19.871C21.7131 18.504 23.5667 17.735 25.5 17.733ZM25.5 14.0875C23.3368 14.0875 21.2221 14.7289 19.4235 15.9308C17.6248 17.1326 16.2229 18.8408 15.3951 20.8394C14.5672 22.8379 14.3506 25.0371 14.7727 27.1588C15.1947 29.2804 16.2364 31.2293 17.766 32.7589C19.2957 34.2886 21.2445 35.3303 23.3662 35.7523C25.4879 36.1743 27.687 35.9577 29.6856 35.1299C31.6842 34.3021 33.3924 32.9002 34.5942 31.1015C35.796 29.3029 36.4375 27.1882 36.4375 25.025C36.4375 22.1242 35.2852 19.3422 33.234 17.291C31.1828 15.2398 28.4008 14.0875 25.5 14.0875Z" fill="white"/>
</svg>
