<svg width="51" height="51" viewBox="0 0 51 51" fill="none" xmlns="http://www.w3.org/2000/svg">
<g clip-path="url(#clip0_4_268)">
<path d="M50.172 14.5552C50.172 10.1607 46.9396 6.62555 42.9454 6.62555C37.5353 6.37262 32.0177 6.27496 26.379 6.27496H24.6212C18.9962 6.27496 13.4689 6.37262 8.0587 6.62653C4.07432 6.62653 0.841902 10.1812 0.841902 14.5757C0.597762 18.0513 0.494246 21.5279 0.500106 25.0045C0.49034 28.481 0.601017 31.9608 0.832137 35.4439C0.832137 39.8384 4.06456 43.4029 8.04893 43.4029C13.7325 43.6666 19.5626 43.7838 25.4903 43.774C31.4278 43.7935 37.2416 43.6698 42.9317 43.4029C46.9259 43.4029 50.1583 39.8384 50.1583 35.4439C50.3927 31.9576 50.5001 28.481 50.4903 24.9947C50.5125 21.5181 50.4064 18.0383 50.172 14.5552ZM20.715 34.5845V15.3951L34.8751 24.9849L20.715 34.5845Z" fill="white"/>
</g>
<defs>
<clipPath id="clip0_4_268">
<rect width="50" height="50" fill="white" transform="translate(0.5 0.0249634)"/>
</clipPath>
</defs>
</svg>
