<svg width="127" height="127" viewBox="0 0 127 127" fill="none" xmlns="http://www.w3.org/2000/svg">
<path d="M63.5 0C28.575 0 0 28.575 0 63.5C0 98.425 28.575 127 63.5 127C98.425 127 127 98.425 127 63.5C127 28.575 98.7425 0 63.5 0ZM92.7153 91.7575C91.4453 93.6572 89.2228 94.2975 87.3125 93.0275C72.39 83.82 53.6575 81.9097 31.4272 86.9897C29.2153 87.6353 27.305 86.0425 26.67 84.1375C26.035 81.9097 27.6225 80.01 29.5275 79.375C53.6575 73.9722 74.6125 76.2 91.1225 86.36C93.345 87.3125 93.6572 89.8472 92.7153 91.7575ZM100.335 74.295C98.7425 76.5175 95.885 77.47 93.6572 75.8825C76.5175 65.405 50.4825 62.23 30.48 68.58C27.9453 69.215 25.0825 67.945 24.4475 65.405C23.8125 62.865 25.0825 60.0022 27.6225 59.3672C50.8 52.3875 79.375 55.8853 99.06 67.945C100.97 68.9028 101.917 72.0725 100.335 74.295ZM100.97 56.515C80.645 44.45 46.6725 43.18 27.305 49.2178C24.13 50.165 20.955 48.26 20.0025 45.4025C19.05 42.2222 20.955 39.0525 23.8125 38.0947C46.355 31.4272 83.5025 32.6972 107.003 46.6725C109.855 48.26 110.807 52.07 109.22 54.9275C107.638 57.1553 103.822 58.0972 100.97 56.515Z" fill="white"/>
</svg>
