<svg width="40" height="41" viewBox="0 0 40 41" fill="none" xmlns="http://www.w3.org/2000/svg">
<path d="M37.2336 17.7631L37.2211 17.7577L3.85547 3.9186C3.57483 3.80114 3.26945 3.75507 2.96665 3.78452C2.66384 3.81397 2.37306 3.91802 2.12031 4.08735C1.85328 4.26233 1.63393 4.50095 1.48201 4.78174C1.33009 5.06253 1.25036 5.37669 1.25 5.69595V14.5467C1.25015 14.9832 1.40255 15.4059 1.68093 15.742C1.95931 16.0782 2.34623 16.3067 2.775 16.3881L20.9727 19.753C21.0442 19.7665 21.1087 19.8046 21.1551 19.8607C21.2015 19.9167 21.2269 19.9872 21.2269 20.06C21.2269 20.1328 21.2015 20.2033 21.1551 20.2593C21.1087 20.3154 21.0442 20.3535 20.9727 20.367L2.77578 23.7319C2.34713 23.8131 1.96023 24.0413 1.68172 24.3772C1.40322 24.713 1.25055 25.1354 1.25 25.5717V34.4241C1.24979 34.7289 1.32528 35.0291 1.46968 35.2976C1.61408 35.566 1.82288 35.7945 2.07734 35.9624C2.38344 36.1657 2.74266 36.2744 3.11016 36.2749C3.36564 36.2746 3.61851 36.2234 3.85391 36.1241L37.2188 22.3639L37.2336 22.3569C37.6827 22.1639 38.0654 21.8434 38.3343 21.4352C38.6032 21.027 38.7465 20.5488 38.7465 20.06C38.7465 19.5712 38.6032 19.0931 38.3343 18.6848C38.0654 18.2766 37.6827 17.9561 37.2336 17.7631Z" fill="#ECECEC"/>
</svg>
