<svg width="47" height="48" viewBox="0 0 47 48" fill="none" xmlns="http://www.w3.org/2000/svg">
<path d="M13.7673 1.03953C11.2669 1.15742 9.55942 1.55653 8.06657 2.14285C6.52183 2.74504 5.21229 3.55285 3.9094 4.86043C2.60671 6.168 1.80419 7.47832 1.2065 9.02579C0.628005 10.5216 0.235944 12.2306 0.125494 14.7324C0.0150432 17.2341 -0.0094361 18.0384 0.00290146 24.4202C0.0150432 30.8016 0.0432433 31.6016 0.164465 34.1086C0.283924 36.6084 0.681467 38.3155 1.26799 39.8087C1.87116 41.3537 2.678 42.6626 3.98617 43.9659C5.29415 45.2691 6.6035 46.0697 8.1545 46.6684C9.64911 47.2461 11.3585 47.6399 13.8599 47.7494C16.3613 47.859 17.1664 47.8845 23.5463 47.8722C29.9262 47.86 30.7295 47.8316 33.2358 47.7127C35.7425 47.5939 37.4403 47.1934 38.9342 46.6096C40.4791 46.0053 41.789 45.1996 43.0913 43.8913C44.3936 42.5827 45.1956 41.2714 45.7929 39.7232C46.372 38.2286 46.7654 36.5193 46.8739 34.0197C46.9835 31.5113 47.0094 30.7105 46.9973 24.3299C46.9849 17.9491 46.9561 17.1491 46.8373 14.6431C46.7184 12.137 46.3203 10.4352 45.7341 8.94099C45.1302 7.39607 44.3241 6.0881 43.0167 4.78385C41.7091 3.47961 40.3967 2.67826 38.8492 2.08234C37.3534 1.50366 35.6451 1.10944 33.1437 1.00135C30.6424 0.893245 29.8373 0.865241 23.455 0.877775C17.0728 0.889916 16.2738 0.917333 13.7673 1.03953ZM14.0419 43.5217C11.7506 43.4221 10.5065 43.0414 9.67731 42.7227C8.57946 42.2997 7.7973 41.7884 6.97108 40.97C6.14466 40.1518 5.63725 39.3669 5.20857 38.2715C4.88662 37.4423 4.49887 36.1995 4.39174 33.9083C4.27522 31.432 4.25074 30.6884 4.23703 24.4143C4.22333 18.1404 4.24741 17.3976 4.35591 14.9204C4.45382 12.6311 4.83687 11.3856 5.15491 10.5568C5.57791 9.4576 6.08747 8.67681 6.90763 7.85118C7.72778 7.02536 8.51033 6.51678 9.60681 6.0881C10.4352 5.76478 11.6778 5.38036 13.968 5.27128C16.4463 5.15378 17.1889 5.13028 23.4621 5.11657C29.7352 5.10287 30.4798 5.12637 32.9591 5.23564C35.2484 5.33512 36.4945 5.71445 37.3223 6.03464C38.4205 6.45764 39.2023 6.96563 40.0279 7.78734C40.8537 8.60866 41.3627 9.38847 41.7914 10.4873C42.1151 11.3131 42.4997 12.5553 42.6078 14.8471C42.7257 17.3254 42.7525 18.0686 42.7637 24.3411C42.7751 30.6136 42.7529 31.3586 42.6442 33.8351C42.5444 36.1263 42.1645 37.3708 41.8452 38.201C41.4222 39.2984 40.9125 40.0809 40.0917 40.9062C39.2712 41.7316 38.4896 42.24 37.3926 42.6687C36.5654 42.9916 35.3212 43.377 33.0329 43.4861C30.5544 43.6026 29.8118 43.6271 23.5363 43.6408C17.2608 43.6545 16.5202 43.629 14.0419 43.5217ZM33.1997 11.815C33.2007 12.3728 33.367 12.9178 33.6777 13.3811C33.9884 13.8443 34.4295 14.205 34.9452 14.4176C35.4609 14.6301 36.0281 14.6849 36.575 14.5751C37.1218 14.4653 37.6239 14.1958 38.0175 13.8006C38.4112 13.4055 38.6789 12.9024 38.7866 12.3552C38.8944 11.8079 38.8374 11.2409 38.623 10.726C38.4085 10.2111 38.0461 9.77137 37.5817 9.46242C37.1173 9.15347 36.5717 8.98918 36.0139 8.99034C35.2662 8.9919 34.5497 9.29034 34.022 9.82004C33.4942 10.3497 33.1985 11.0673 33.1997 11.815ZM11.4337 24.3985C11.4469 31.063 16.8595 36.4533 23.5226 36.4408C30.1861 36.4281 35.5801 31.016 35.5676 24.3515C35.5549 17.6869 30.141 12.295 23.4768 12.3081C16.8125 12.3213 11.4212 17.7347 11.4337 24.3985ZM15.6667 24.39C15.6636 22.8408 16.1201 21.3254 16.9783 20.0355C17.8365 18.7456 19.0579 17.7392 20.488 17.1435C21.9182 16.5478 23.4929 16.3895 25.013 16.6888C26.5331 16.988 27.9304 17.7313 29.0281 18.8246C30.1258 19.9179 30.8746 21.3122 31.1799 22.8311C31.4851 24.35 31.3331 25.9253 30.7431 27.3578C30.1531 28.7903 29.1515 30.0157 27.8651 30.879C26.5786 31.7423 25.065 32.2048 23.5157 32.2079C22.487 32.21 21.4679 32.0095 20.5167 31.6178C19.5654 31.2261 18.7007 30.6508 17.9718 29.9248C17.243 29.1988 16.6642 28.3364 16.2687 27.3867C15.8732 26.4371 15.6686 25.4188 15.6667 24.39Z" fill="white"/>
</svg>
