<svg width="71" height="70" viewBox="0 0 71 70" fill="none" xmlns="http://www.w3.org/2000/svg">
<rect x="0.333984" width="70" height="70" rx="15" fill="#05ABF2"/>
<path d="M53.2939 20.9375H50.9678C50.9654 20.9375 50.9632 20.9384 50.9616 20.9401C50.9599 20.9417 50.959 20.944 50.959 20.9463V50.625C50.959 51.4538 51.2882 52.2487 51.8743 52.8347C52.4603 53.4208 53.2552 53.75 54.084 53.75C54.9128 53.75 55.7076 53.4208 56.2937 52.8347C56.8797 52.2487 57.209 51.4538 57.209 50.625V24.8525C57.209 23.8142 56.7965 22.8184 56.0623 22.0842C55.3281 21.35 54.3323 20.9375 53.2939 20.9375Z" fill="white"/>
<path d="M47.834 50.625V17.0312C47.834 16.5183 47.7329 16.0103 47.5366 15.5364C47.3403 15.0625 47.0526 14.6318 46.6899 14.2691C46.3271 13.9064 45.8965 13.6187 45.4226 13.4223C44.9487 13.226 44.4407 13.125 43.9277 13.125H17.3652C16.3292 13.125 15.3357 13.5366 14.6031 14.2691C13.8705 15.0017 13.459 15.9952 13.459 17.0312V51.4062C13.459 52.8567 14.0352 54.2477 15.0607 55.2732C16.0863 56.2988 17.4773 56.875 18.9277 56.875H52.4092C52.424 56.8751 52.4386 56.8723 52.4523 56.8667C52.466 56.8611 52.4784 56.8529 52.4889 56.8424C52.4993 56.8319 52.5076 56.8195 52.5132 56.8058C52.5188 56.7921 52.5216 56.7775 52.5215 56.7627C52.5214 56.7381 52.5133 56.7143 52.4982 56.6949C52.4832 56.6754 52.4622 56.6615 52.4385 56.6553C51.1167 56.2927 49.9505 55.5064 49.1187 54.4171C48.2869 53.3278 47.8356 51.9956 47.834 50.625ZM19.709 22.5C19.709 22.0856 19.8736 21.6882 20.1666 21.3951C20.4597 21.1021 20.8571 20.9375 21.2715 20.9375H27.5215C27.9359 20.9375 28.3333 21.1021 28.6263 21.3951C28.9194 21.6882 29.084 22.0856 29.084 22.5V28.75C29.084 29.1644 28.9194 29.5618 28.6263 29.8549C28.3333 30.1479 27.9359 30.3125 27.5215 30.3125H21.2715C20.8571 30.3125 20.4597 30.1479 20.1666 29.8549C19.8736 29.5618 19.709 29.1644 19.709 28.75V22.5ZM40.0215 49.0625H21.3154C20.4746 49.0625 19.7529 48.416 19.7109 47.5752C19.7008 47.3639 19.7336 47.1528 19.8074 46.9546C19.8812 46.7564 19.9945 46.5752 20.1405 46.4221C20.2864 46.269 20.4618 46.1471 20.6563 46.0638C20.8507 45.9805 21.06 45.9375 21.2715 45.9375H39.9775C40.8184 45.9375 41.54 46.584 41.582 47.4248C41.5922 47.6361 41.5594 47.8472 41.4856 48.0454C41.4117 48.2436 41.2984 48.4248 41.1525 48.5779C41.0066 48.731 40.8311 48.8529 40.6367 48.9362C40.4423 49.0195 40.233 49.0625 40.0215 49.0625ZM40.0215 42.8125H21.3154C20.4746 42.8125 19.7529 42.166 19.7109 41.3252C19.7008 41.1139 19.7336 40.9028 19.8074 40.7046C19.8812 40.5064 19.9945 40.3252 20.1405 40.1721C20.2864 40.019 20.4618 39.8971 20.6563 39.8138C20.8507 39.7305 21.06 39.6875 21.2715 39.6875H39.9775C40.8184 39.6875 41.54 40.334 41.582 41.1748C41.5922 41.3861 41.5594 41.5972 41.4856 41.7954C41.4117 41.9936 41.2984 42.1748 41.1525 42.3279C41.0066 42.481 40.8311 42.6029 40.6367 42.6862C40.4423 42.7695 40.233 42.8125 40.0215 42.8125ZM40.0215 36.5625H21.3154C20.4746 36.5625 19.7529 35.916 19.7109 35.0752C19.7008 34.8639 19.7336 34.6528 19.8074 34.4546C19.8812 34.2564 19.9945 34.0752 20.1405 33.9221C20.2864 33.769 20.4618 33.6471 20.6563 33.5638C20.8507 33.4805 21.06 33.4375 21.2715 33.4375H39.9775C40.8184 33.4375 41.54 34.084 41.582 34.9248C41.5922 35.1361 41.5594 35.3472 41.4856 35.5454C41.4117 35.7436 41.2984 35.9248 41.1525 36.0779C41.0066 36.231 40.8311 36.3529 40.6367 36.4362C40.4423 36.5195 40.233 36.5625 40.0215 36.5625ZM40.0215 30.3125H33.8154C32.9746 30.3125 32.2529 29.666 32.2109 28.8252C32.2008 28.6139 32.2336 28.4028 32.3074 28.2046C32.3812 28.0064 32.4945 27.8252 32.6404 27.6721C32.7864 27.519 32.9618 27.3971 33.1563 27.3138C33.3507 27.2305 33.56 27.1875 33.7715 27.1875H39.9775C40.8184 27.1875 41.54 27.834 41.582 28.6748C41.5922 28.8861 41.5594 29.0972 41.4856 29.2954C41.4117 29.4936 41.2984 29.6748 41.1525 29.8279C41.0066 29.981 40.8311 30.1029 40.6367 30.1862C40.4423 30.2695 40.233 30.3125 40.0215 30.3125ZM40.0215 24.0625H33.8154C32.9746 24.0625 32.2529 23.416 32.2109 22.5752C32.2008 22.3639 32.2336 22.1528 32.3074 21.9546C32.3812 21.7564 32.4945 21.5752 32.6404 21.4221C32.7864 21.269 32.9618 21.1471 33.1563 21.0638C33.3507 20.9805 33.56 20.9375 33.7715 20.9375H39.9775C40.8184 20.9375 41.54 21.584 41.582 22.4248C41.5922 22.6361 41.5594 22.8472 41.4856 23.0454C41.4117 23.2436 41.2984 23.4248 41.1525 23.5779C41.0066 23.731 40.8311 23.8529 40.6367 23.9362C40.4423 24.0195 40.233 24.0625 40.0215 24.0625Z" fill="white"/>
</svg>
